# Blender 4.3.2
# www.blender.org
mtllib refri.mtl
o Cube
v -1.058710 -2.327898 1.177916
v -1.058710 2.327898 1.177916
v -0.882258 -2.466965 -1.248284
v -0.882258 2.466965 -1.248284
v 0.970484 -2.425686 1.227397
v 0.970484 2.409299 1.219105
v 0.882258 -2.466965 -1.248284
v 0.882258 2.466965 -1.248284
v -1.058710 -0.163065 1.177916
v -0.882258 -0.163065 -1.248284
v 0.882258 -0.163065 -1.248284
v 0.970484 0.123925 1.103067
v -0.882258 -2.466965 -1.248284
v -0.882258 2.466965 -1.248284
v 0.882258 -2.466965 -1.248284
v 0.882258 2.466965 -1.248284
v 0.882258 -0.163065 -1.248284
v -0.882258 -0.163065 -1.248284
v -0.882258 -2.466965 -1.248284
v 0.882258 2.466965 -1.248284
v 0.882258 -0.163065 -1.248284
v -0.882258 2.466965 -1.248284
v 0.882258 -2.466965 -1.248284
v -0.882258 -0.163065 -1.248284
v -1.058710 -2.327898 -1.177916
v 0.970484 1.823244 -0.922562
v 0.970484 0.480656 -0.922562
v -1.058710 2.327898 -1.177916
v 0.970484 -2.414586 -1.221780
v -1.058710 -0.163065 -1.177916
v -1.058710 -2.327898 0.000000
v 0.970484 2.409299 0.029179
v 0.970484 0.123925 0.145217
v -1.058710 2.327898 0.000000
v 0.970484 -2.414586 -0.026504
v 0.970484 1.823244 -0.325723
v 0.882258 2.466965 1.248284
v 0.970484 -0.204345 1.227397
v 0.970484 0.480656 -0.325723
v 0.882258 2.409299 0.029179
v 0.882258 2.409299 1.219105
v 0.882258 -0.105399 1.219105
v 0.882258 -0.105399 0.029179
v 0.882258 2.466965 -1.248284
v 0.970484 -0.215445 -1.221780
v 0.882258 2.466965 0.000000
v 0.970484 -0.215445 -0.026504
v 0.970484 -2.425686 0.020887
v 0.882258 -2.466965 -1.248284
v 0.882258 -0.163065 -1.248284
v 0.970484 -0.204345 0.020887
v 0.882258 -0.163065 1.248284
v 0.882258 -2.466965 1.248284
v 0.882258 -0.163065 0.000000
v 0.882258 -2.466965 0.000000
v -0.882258 -2.466965 0.000000
v -0.882258 -2.466965 1.248284
v -0.882258 -0.163065 1.248284
v -0.882258 2.466965 1.248284
v -0.882258 2.466965 0.000000
v -0.882258 2.466965 -1.248284
v -0.882258 -0.163065 -1.248284
v -0.882258 -2.466965 -1.248284
v -0.882258 -2.466965 0.000000
v -0.882258 -2.466965 1.248284
v -0.882258 -0.163065 1.248284
v -0.882258 2.466965 1.248284
v -0.882258 2.466965 0.000000
v -0.882258 2.466965 -1.248284
v -0.882258 -0.163065 -1.248284
v -0.882258 -2.466965 -1.248284
v -0.882258 1.115861 1.248284
v -0.882258 1.115861 -1.248284
v 0.882258 1.115861 -1.248284
v 0.882258 1.115861 1.248284
v 0.882258 1.115861 -1.248284
v -0.882258 1.115861 -1.248284
v -0.882258 1.115861 -1.248284
v 0.882258 1.115861 -1.248284
v -0.882258 1.115861 -1.248284
v 0.882258 1.115861 -1.248284
v 0.882258 1.115861 0.000000
v 0.882258 1.117443 1.219105
v 0.882258 1.117443 0.029179
v 0.937207 0.888120 1.055983
v 0.937207 0.888120 0.192301
v 0.970484 1.117306 -0.922561
v 0.970484 1.117306 -0.325723
v -0.882258 1.115861 1.248284
v -0.882258 1.115861 -1.248284
v -1.058710 1.048235 1.177916
v -1.058710 1.048235 -1.177916
v 0.970484 1.117443 1.219105
v 0.970484 -0.105399 1.219105
v 0.970484 -0.105399 0.029179
v 0.970484 1.117443 0.029179
v 0.970484 1.117443 1.219105
v 0.970484 -0.105399 1.219105
v 0.970484 -0.105399 0.029179
v 0.970484 1.117443 0.029179
v 0.707078 0.888120 1.055983
v 0.673800 0.123925 1.103067
v 0.673800 0.123925 0.145217
v 0.707078 0.888120 0.192301
v 0.970484 1.117306 -1.221642
v 0.970484 -0.110412 -1.221642
v 0.970484 2.414312 -1.221642
v 0.970484 2.414312 -0.026642
v 0.970484 -0.110412 -0.026642
v 0.970484 1.117306 -0.026642
v 0.925737 1.117306 -0.922561
v 0.925737 0.480656 -0.922562
v 0.925737 1.823244 -0.922562
v 0.925737 1.823244 -0.325723
v 0.925737 0.480656 -0.325723
v 0.925737 1.117306 -0.325723
v 0.970484 0.888120 0.145217
v 0.970484 0.888120 1.103067
v 0.673800 0.888120 0.145217
v 0.673800 0.888120 1.103067
v 0.970484 0.888120 0.145217
v 0.970484 0.888120 1.103067
v 0.673800 0.888120 0.145217
v 0.673800 0.888120 1.103067
v -0.882258 -2.466965 0.624142
v 0.882258 -2.466965 0.624142
v 0.882258 -0.105399 0.624142
v 0.970484 -0.105399 0.624142
v 0.970484 -2.425686 0.624142
v -0.882258 -2.466965 0.624142
v -1.058710 -2.327898 0.588958
v 0.970484 -0.105399 0.624142
v 0.970484 0.888120 0.624142
v 0.673800 0.888120 0.624142
v 0.970484 0.888120 0.624142
v 0.673800 0.888120 0.624142
v 0.937207 0.888120 0.624142
v 0.707078 0.888120 0.624142
v -0.882258 -2.466965 0.936213
v 0.882258 -0.105399 0.921624
v 0.970484 -0.105399 0.921624
v -0.882258 -2.466965 0.936213
v -1.058710 -2.327898 0.883437
v 0.970484 -0.105399 0.921624
v 0.970484 0.888120 0.863605
v 0.673800 0.888120 0.863605
v 0.970484 0.888120 0.863605
v 0.673800 0.888120 0.863605
v 0.937207 0.888120 0.840063
v 0.707078 0.888120 0.840063
v 0.882258 -2.466965 0.936213
v 0.970484 -2.425686 0.925770
v 0.882258 -2.466965 0.312071
v 0.970484 -2.425686 0.322515
v -0.882258 -2.466965 0.312071
v 0.970484 -0.105399 0.326661
v -0.882258 -2.466965 0.312071
v -1.058710 -2.327898 0.294479
v 0.970484 -0.105399 0.326661
v 0.970484 0.888120 0.384680
v 0.673800 0.888120 0.384680
v 0.970484 0.888120 0.384680
v 0.673800 0.888120 0.384680
v 0.937207 0.888120 0.408221
v 0.707078 0.888120 0.408221
v 0.937207 0.821500 0.624142
v 0.707078 0.821500 0.624142
v 0.937207 0.821500 0.840063
v 0.707078 0.821500 0.840063
v 0.937207 0.821500 0.408221
v 0.937207 0.821500 0.624142
v 0.707078 0.821500 0.408221
v 0.707078 0.821500 0.624142
v 0.940000 -1.100000 -0.100000
v 0.940000 -0.340000 -0.100000
v 0.940000 -1.100000 -0.280000
v 0.940000 -0.340000 -0.280000
v 1.040000 -1.100000 -0.100000
v 1.040000 -0.340000 -0.100000
v 1.040000 -1.100000 -0.280000
v 1.040000 -0.340000 -0.280000
v 0.940000 -1.100000 0.280000
v 0.940000 -0.340000 0.280000
v 0.940000 -1.100000 0.100000
v 0.940000 -0.340000 0.100000
v 1.040000 -1.100000 0.280000
v 1.040000 -0.340000 0.280000
v 1.040000 -1.100000 0.100000
v 1.040000 -0.340000 0.100000
vn -0.0000 1.0000 -0.0000
vn -0.0000 -0.0000 -1.0000
vn 1.0000 -0.0000 -0.0000
vn -0.0000 -0.0000 1.0000
vn -0.0000 -1.0000 -0.0000
vn 0.2891 -0.0000 -0.9573
vn 0.5125 0.8587 -0.0000
vn 0.5125 -0.8587 -0.0000
vn 0.2891 -0.0000 0.9573
vn 0.5105 -0.8599 -0.0000
vn 0.2877 -0.0000 -0.9577
vn 0.5105 0.8599 -0.0000
vn 0.2877 -0.0000 0.9577
vn 0.2304 -0.0000 0.9731
vn 0.4238 -0.9058 -0.0000
vn 0.2304 -0.0000 -0.9731
vn -0.6190 -0.7854 -0.0000
vn -0.3704 -0.0000 0.9289
vn -0.6190 0.7854 -0.0000
vn -0.3704 -0.0000 -0.9289
vn -1.0000 -0.0000 -0.0000
vn 0.4238 0.9058 -0.0000
vt 0.901387 0.423754
vt 0.012503 0.430877
vt 0.012503 0.349510
vt 0.309639 0.349510
vt 0.309639 0.430877
vt 0.789277 0.819962
vt 0.711477 0.819962
vt 0.711477 0.678340
vt 0.789277 0.678340
vt 0.416012 0.309639
vt 0.334644 0.309639
vt 0.334644 0.012503
vt 0.416012 0.012503
vt 0.371786 0.349498
vt 0.371786 0.646625
vt 0.334644 0.646625
vt 0.334644 0.349498
vt 0.161071 0.309637
vt 0.161071 0.012503
vt 0.309639 0.012503
vt 0.309639 0.309637
vt 0.631780 0.309639
vt 0.493033 0.309639
vt 0.493033 0.012503
vt 0.631780 0.012503
vt 0.012503 0.815247
vt 0.012503 0.671651
vt 0.146279 0.671651
vt 0.146279 0.707550
vt 0.146279 0.743449
vt 0.146279 0.779348
vt 0.146279 0.815247
vt 0.012503 0.646646
vt 0.012503 0.507898
vt 0.309639 0.507898
vt 0.309639 0.646646
vt 0.289705 0.881430
vt 0.289705 0.919770
vt 0.282170 0.919770
vt 0.282170 0.881430
vt 0.303723 0.813910
vt 0.171284 0.813910
vt 0.171284 0.671651
vt 0.303723 0.671651
vt 0.012503 0.309637
vt 0.012503 0.012503
vt 0.631780 0.349498
vt 0.631780 0.646625
vt 0.483212 0.646625
vt 0.483212 0.349498
vt 0.801881 0.321367
vt 0.660259 0.321367
vt 0.656786 0.317894
vt 0.805354 0.317894
vt 0.801881 0.399166
vt 0.805354 0.399262
vt 0.660259 0.399166
vt 0.660259 0.472810
vt 0.656786 0.476282
vt 0.656786 0.399262
vt 0.487987 0.825474
vt 0.487987 0.967096
vt 0.473130 0.967096
vt 0.473130 0.825474
vt 0.824017 0.901229
vt 0.824017 0.823429
vt 0.838874 0.823429
vt 0.838874 0.901229
vt 0.527849 0.931690
vt 0.527849 0.967096
vt 0.512992 0.967096
vt 0.512992 0.931690
vt 0.878737 0.901229
vt 0.878737 0.974872
vt 0.863880 0.974872
vt 0.863880 0.901229
vt 0.977030 0.093783
vt 0.977030 0.167720
vt 0.962177 0.170891
vt 0.962177 0.093870
vt 0.157900 0.324504
vt 0.015674 0.324504
vt 0.448124 0.828645
vt 0.448124 0.970871
vt 0.433293 0.974042
vt 0.433293 0.825474
vt 0.926399 0.399175
vt 0.926399 0.321065
vt 0.941252 0.317894
vt 0.941252 0.399262
vt 0.628626 0.661456
vt 0.486367 0.661456
vt 0.607566 0.828628
vt 0.607566 0.961067
vt 0.592713 0.964221
vt 0.592713 0.825474
vt 0.918609 0.826584
vt 0.918609 0.968843
vt 0.903742 0.971997
vt 0.903742 0.823429
vt 0.171284 0.974509
vt 0.171284 0.842070
vt 0.186137 0.838916
vt 0.186137 0.977664
vt 0.629294 0.324492
vt 0.495518 0.324492
vt 0.527849 0.825474
vt 0.527849 0.860879
vt 0.527849 0.896285
vt 0.512992 0.896285
vt 0.512992 0.825474
vt 0.373029 0.661461
vt 0.337130 0.661461
vt 0.567708 0.827960
vt 0.567708 0.961735
vt 0.552854 0.964221
vt 0.552854 0.825474
vt 0.824017 0.684904
vt 0.824017 0.649856
vt 0.853796 0.649856
vt 0.853796 0.686998
vt 0.908525 0.586728
vt 0.908525 0.659676
vt 0.878801 0.659676
vt 0.878801 0.582655
vt 0.908525 0.790049
vt 0.878801 0.798424
vt 0.656786 0.967101
vt 0.656786 0.826908
vt 0.686472 0.826908
vt 0.686472 0.975476
vt 0.933531 0.790049
vt 0.933531 0.659676
vt 0.963255 0.659676
vt 0.963255 0.798424
vt 0.933531 0.586728
vt 0.933531 0.509663
vt 0.963255 0.501288
vt 0.963255 0.582655
vt 0.824017 0.509663
vt 0.853796 0.501288
vt 0.656786 0.686715
vt 0.686472 0.678340
vt 0.908525 0.509663
vt 0.878801 0.501288
vt 0.926399 0.473111
vt 0.941252 0.476282
vt 0.977030 0.015674
vt 0.962177 0.012503
vt 0.878737 0.823429
vt 0.863880 0.823429
vt 0.824017 0.974872
vt 0.838874 0.974872
vt 0.801881 0.472810
vt 0.805354 0.476282
vt 0.552613 0.769166
vt 0.552613 0.794864
vt 0.513862 0.794864
vt 0.513862 0.769166
vt 0.937172 0.292889
vt 0.806799 0.292889
vt 0.733851 0.292889
vt 0.656786 0.292889
vt 0.656786 0.152696
vt 0.656786 0.012503
vt 0.733851 0.012503
vt 0.806799 0.012503
vt 0.937172 0.012503
vt 0.937172 0.152696
vt 0.937172 0.187744
vt 0.937172 0.222792
vt 0.937172 0.257840
vt 0.901387 0.448760
vt 0.348455 0.700278
vt 0.348455 0.728778
vt 0.348455 0.757278
vt 0.348455 0.785778
vt 0.348455 0.814279
vt 0.394477 0.814279
vt 0.408287 0.828089
vt 0.334644 0.828089
vt 0.334644 0.686467
vt 0.408287 0.686467
vt 0.394477 0.700278
vt 0.876381 0.473714
vt 0.830359 0.473714
vt 0.830359 0.423754
vt 0.876381 0.423754
vt 0.211142 0.838916
vt 0.257164 0.838916
vt 0.257164 0.888876
vt 0.211142 0.888876
vt 0.763416 0.579397
vt 0.763416 0.536884
vt 0.799012 0.501288
vt 0.799012 0.579397
vt 0.799012 0.653334
vt 0.763416 0.617738
vt 0.692382 0.536884
vt 0.656786 0.501288
vt 0.692382 0.617738
vt 0.656786 0.653334
vt 0.830359 0.398749
vt 0.830359 0.360408
vt 0.830359 0.317894
vt 0.901394 0.317894
vt 0.901394 0.360408
vt 0.901394 0.398749
vt 0.392883 0.853095
vt 0.392883 0.924129
vt 0.385348 0.924129
vt 0.385348 0.853095
vt 0.012503 0.882767
vt 0.012503 0.840253
vt 0.020038 0.840253
vt 0.020038 0.882767
vt 0.145436 0.840253
vt 0.145436 0.911287
vt 0.137901 0.911287
vt 0.137901 0.840253
vt 0.012503 0.921108
vt 0.020038 0.921108
vt 0.289705 0.838916
vt 0.282170 0.838916
vt 0.692382 0.579397
vt 0.656786 0.579397
vt 0.901387 0.473765
vt 0.552613 0.717769
vt 0.552613 0.692071
vt 0.558217 0.686467
vt 0.558217 0.714967
vt 0.508258 0.800468
vt 0.508258 0.771968
vt 0.558217 0.800468
vt 0.513862 0.692071
vt 0.508258 0.686467
vt 0.513862 0.717769
vt 0.513862 0.743468
vt 0.508258 0.743468
vt 0.508258 0.714967
vt 0.552613 0.743468
vt 0.558217 0.743468
vt 0.558217 0.771968
vt 0.583223 0.743468
vt 0.583223 0.714967
vt 0.583223 0.686467
vt 0.629245 0.686467
vt 0.629245 0.800468
vt 0.583223 0.800468
vt 0.583223 0.771968
vt 0.408287 0.721873
vt 0.408287 0.757278
vt 0.408287 0.792684
vt 0.012503 0.971811
vt 0.012503 0.946113
vt 0.016515 0.946113
vt 0.016515 0.971811
vt 0.824017 0.755001
vt 0.824017 0.719952
vt 0.853796 0.724140
vt 0.853796 0.761282
vt 0.444827 0.661461
vt 0.408928 0.661461
vt 0.408928 0.646625
vt 0.446070 0.646625
vt 0.731070 0.472810
vt 0.766475 0.472810
vt 0.446070 0.349498
vt 0.408928 0.349498
vt 0.824017 0.790049
vt 0.853796 0.798424
vt 0.137901 0.961991
vt 0.137901 0.936293
vt 0.141913 0.936293
vt 0.141913 0.961991
vt 0.958480 0.825915
vt 0.958480 0.969511
vt 0.943615 0.971997
vt 0.943615 0.823429
vt 0.480726 0.661461
vt 0.483253 0.686467
vt 0.483253 0.800468
vt 0.433293 0.800468
vt 0.433293 0.686467
vt 0.360343 0.891846
vt 0.334644 0.891846
vt 0.334644 0.853095
vt 0.360343 0.853095
vt 0.252987 0.952634
vt 0.252987 0.913881
vt 0.256999 0.913881
vt 0.256999 0.952634
vt 0.966258 0.471109
vt 0.966258 0.445410
vt 0.970270 0.445410
vt 0.970270 0.471109
vt 0.962177 0.281078
vt 0.962177 0.242325
vt 0.966189 0.242325
vt 0.966189 0.281078
vt 0.070742 0.949779
vt 0.045044 0.949779
vt 0.045044 0.911028
vt 0.070742 0.911028
vt 0.966258 0.356647
vt 0.966258 0.317894
vt 0.970270 0.317894
vt 0.970270 0.356647
vt 0.966258 0.420405
vt 0.966258 0.381652
vt 0.970270 0.381652
vt 0.970270 0.420405
vt 0.983485 0.849128
vt 0.983485 0.823429
vt 0.987497 0.823429
vt 0.987497 0.849128
vt 0.045044 0.886022
vt 0.045044 0.840253
vt 0.066467 0.840253
vt 0.066467 0.886022
vt 0.095747 0.956797
vt 0.095747 0.911028
vt 0.112587 0.911028
vt 0.112587 0.956797
vt 0.091472 0.886022
vt 0.091472 0.840253
vt 0.112895 0.840253
vt 0.112895 0.886022
vt 0.211142 0.959651
vt 0.211142 0.913881
vt 0.227982 0.913881
vt 0.227982 0.959651
vt 0.385348 0.949135
vt 0.402187 0.949135
vt 0.402187 0.970558
vt 0.385348 0.970558
vt 0.299009 0.966199
vt 0.282170 0.966199
vt 0.282170 0.944776
vt 0.299009 0.944776
vt 0.711477 0.890737
vt 0.711477 0.844968
vt 0.732901 0.844968
vt 0.732901 0.890737
vt 0.711477 0.961512
vt 0.711477 0.915743
vt 0.728317 0.915743
vt 0.728317 0.961512
vt 0.757906 0.890737
vt 0.757906 0.844968
vt 0.779329 0.844968
vt 0.779329 0.890737
vt 0.757906 0.961512
vt 0.757906 0.915743
vt 0.774746 0.915743
vt 0.774746 0.961512
vt 0.962177 0.195897
vt 0.979016 0.195897
vt 0.979016 0.217320
vt 0.962177 0.217320
vt 0.351484 0.938275
vt 0.334644 0.938275
vt 0.334644 0.916852
vt 0.351484 0.916852
s 0
usemtl material_refri
f 77/1/1 14/1/1 4/1/1 73/1/1
f 73/2/2 4/3/2 8/4/2 74/5/2
f 96/6/3 32/7/3 6/8/3 93/9/3
f 75/10/4 37/11/4 59/12/4 72/13/4
f 139/14/5 151/15/5 53/16/5 57/17/5
f 46/18/1 60/19/1 59/20/1 37/21/1
f 53/22/4 52/23/4 58/24/4 57/25/4
f 51/26/3 38/27/3 5/28/3 152/29/3 129/30/3 154/31/3 48/32/3
f 3/33/2 10/34/2 11/35/2 7/36/2
f 13/1/1 18/1/1 10/1/1 3/1/1
f 19/1/1 24/1/1 18/1/1 13/1/1
f 7/1/1 11/1/1 17/1/1 15/1/1
f 8/1/1 4/1/1 14/1/1 16/1/1
f 3/1/1 7/1/1 15/1/1 13/1/1
f 74/1/1 8/1/1 16/1/1 76/1/1
f 78/1/1 22/1/1 14/1/1 77/1/1
f 80/1/1 61/1/1 22/1/1 78/1/1
f 63/1/1 62/1/1 24/1/1 19/1/1
f 15/1/1 17/1/1 21/1/1 23/1/1
f 16/1/1 14/1/1 22/1/1 20/1/1
f 13/1/1 15/1/1 23/1/1 19/1/1
f 76/1/1 16/1/1 20/1/1 79/1/1
f 23/1/1 21/1/1 50/1/1 49/1/1
f 20/1/1 22/1/1 61/1/1 44/1/1
f 19/1/1 23/1/1 49/1/1 63/1/1
f 79/1/1 20/1/1 44/1/1 81/1/1
f 88/37/2 39/38/2 115/39/2 116/40/2
f 29/41/3 45/42/3 47/43/3 35/44/3
f 44/45/1 61/46/1 60/19/1 46/18/1
f 63/47/5 49/48/5 55/49/5 56/50/5
f 41/51/3 40/52/3 46/53/3 37/54/3
f 83/55/3 41/51/3 37/54/3 75/56/3
f 84/57/3 43/58/3 54/59/3 82/60/3
f 6/61/1 32/62/1 40/63/1 41/64/1
f 93/65/4 6/66/4 41/67/4 83/68/4
f 141/69/5 94/70/5 42/71/5 140/72/5
f 96/73/2 95/74/2 43/75/2 84/76/2
f 105/77/6 106/78/6 50/79/6 81/80/6
f 108/81/7 107/82/7 44/45/7 46/18/7
f 106/83/8 109/84/8 54/85/8 50/86/8
f 110/87/9 108/88/9 46/89/9 82/90/9
f 29/91/10 35/92/10 55/49/10 49/48/10
f 45/93/11 29/94/11 49/95/11 50/96/11
f 47/97/12 45/98/12 50/99/12 54/100/12
f 35/101/13 47/102/13 54/103/13 55/104/13
f 5/105/14 38/106/14 52/23/14 53/22/14
f 95/107/5 156/108/5 128/109/5 127/110/5 43/111/5
f 152/112/15 5/113/15 53/16/15 151/15/15
f 51/114/16 48/115/16 55/116/16 54/117/16
f 157/1/1 64/1/1 56/1/1 155/1/1
f 89/1/1 66/1/1 58/1/1 72/1/1
f 66/1/1 65/1/1 57/1/1 58/1/1
f 69/1/1 68/1/1 60/1/1 61/1/1
f 71/1/1 70/1/1 62/1/1 63/1/1
f 90/1/1 69/1/1 61/1/1 80/1/1
f 64/1/1 71/1/1 63/1/1 56/1/1
f 68/1/1 67/1/1 59/1/1 60/1/1
f 158/118/17 31/119/17 64/120/17 157/121/17
f 91/122/18 9/123/18 66/124/18 89/125/18
f 9/123/18 1/126/18 65/127/18 66/124/18
f 28/128/19 34/129/19 68/130/19 69/131/19
f 25/132/20 30/133/20 70/134/20 71/135/20
f 92/136/20 28/137/20 69/138/20 90/139/20
f 31/119/17 25/140/17 71/141/17 64/120/17
f 34/129/19 2/142/19 67/143/19 68/130/19
f 30/133/20 92/136/20 90/139/20 70/134/20
f 2/144/18 91/122/18 89/125/18 67/145/18
f 70/1/1 90/1/1 80/1/1 62/1/1
f 67/1/1 89/1/1 72/1/1 59/1/1
f 109/146/9 110/87/9 82/90/9 54/147/9
f 107/148/6 105/77/6 81/80/6 44/149/6
f 32/150/2 96/73/2 84/76/2 40/151/2
f 94/152/4 93/65/4 83/68/4 42/153/4
f 40/52/3 84/57/3 82/60/3 46/53/3
f 42/154/3 83/55/3 75/56/3 52/155/3
f 21/1/1 79/1/1 81/1/1 50/1/1
f 17/1/1 76/1/1 79/1/1 21/1/1
f 62/1/1 80/1/1 78/1/1 24/1/1
f 24/1/1 78/1/1 77/1/1 18/1/1
f 11/1/1 74/1/1 76/1/1 17/1/1
f 52/23/4 75/10/4 72/13/4 58/24/4
f 149/156/5 85/157/5 101/158/5 150/159/5
f 10/34/2 73/2/2 74/5/2 11/35/2
f 18/1/1 77/1/1 73/1/1 10/1/1
f 1/160/21 9/161/21 91/162/21 2/163/21 34/164/21 28/165/21 92/166/21 30/167/21 25/168/21 31/169/21 158/170/21 131/171/21 143/172/21
f 98/173/1 97/173/1 93/173/1 94/173/1
f 144/173/1 98/173/1 94/173/1 141/173/1
f 100/173/1 99/173/1 95/173/1 96/173/1
f 97/173/1 100/173/1 96/173/1 93/173/1
f 118/174/3 145/175/3 133/176/3 160/177/3 117/178/3 33/179/3 99/180/3 100/181/3 97/182/3 98/183/3 12/184/3
f 33/185/4 117/186/4 119/187/4 103/188/4
f 118/189/2 12/190/2 102/191/2 120/192/2
f 88/193/3 36/194/3 108/195/3 110/196/3 109/197/3 39/198/3
f 36/194/3 26/199/3 107/200/3 108/195/3
f 27/201/3 39/198/3 109/197/3 106/202/3
f 112/203/3 111/204/3 113/205/3 114/206/3 116/207/3 115/208/3
f 26/209/5 36/210/5 114/211/5 113/212/5
f 87/213/4 26/214/4 113/215/4 111/216/4
f 39/217/1 27/218/1 112/219/1 115/220/1
f 27/221/4 87/213/4 111/216/4 112/222/4
f 36/223/2 88/37/2 116/40/2 114/224/2
f 26/199/3 87/225/3 27/201/3 106/202/3 105/226/3 107/200/3
f 162/227/1 121/227/1 117/227/1 160/227/1
f 148/227/1 124/227/1 120/227/1 146/227/1
f 124/227/1 122/227/1 118/227/1 120/227/1
f 121/227/1 123/227/1 119/227/1 117/227/1
f 164/228/5 86/229/5 121/230/5 162/231/5
f 150/159/5 101/158/5 124/232/5 148/233/5
f 101/158/5 85/157/5 122/234/5 124/232/5
f 86/229/5 104/235/5 123/236/5 121/230/5
f 165/237/5 138/238/5 136/239/5 163/240/5
f 149/156/5 137/241/5 135/242/5 147/243/5
f 163/227/1 136/227/1 134/227/1 161/227/1
f 147/227/1 135/227/1 133/227/1 145/227/1
f 134/244/3 146/245/3 120/246/3 102/247/3 103/248/3 119/249/3 161/250/3
f 33/179/3 12/184/3 98/183/3 144/251/3 132/252/3 159/253/3 99/180/3
f 159/173/1 132/173/1 128/173/1 156/173/1
f 164/254/3 137/255/3 171/256/3 170/257/3
f 143/258/17 131/259/17 130/260/17 142/261/17
f 142/1/1 130/1/1 125/1/1 139/1/1
f 154/262/15 129/263/15 126/264/15 153/265/15
f 127/266/3 140/267/3 42/154/3 52/155/3 54/59/3 43/58/3
f 155/268/5 153/265/5 126/264/5 125/269/5
f 65/1/1 142/1/1 139/1/1 57/1/1
f 1/270/17 143/258/17 142/261/17 65/271/17
f 122/227/1 147/227/1 145/227/1 118/227/1
f 85/157/5 149/156/5 147/243/5 122/234/5
f 138/238/5 150/159/5 148/233/5 136/239/5
f 136/227/1 148/227/1 146/227/1 134/227/1
f 132/173/1 144/173/1 141/173/1 128/173/1
f 150/272/21 138/273/21 167/274/21 169/275/21
f 129/263/15 152/112/15 151/15/15 126/264/15
f 128/109/5 141/69/5 140/72/5 127/110/5
f 125/269/5 126/264/5 151/15/5 139/14/5
f 56/50/5 55/49/5 153/265/5 155/268/5
f 38/276/22 51/277/22 54/278/22 52/279/22
f 48/280/15 154/262/15 153/265/15 55/49/15
f 86/229/5 164/228/5 165/237/5 104/235/5
f 99/173/1 159/173/1 156/173/1 95/173/1
f 123/227/1 163/227/1 161/227/1 119/227/1
f 104/235/5 165/237/5 163/240/5 123/236/5
f 137/241/5 164/228/5 162/231/5 135/242/5
f 135/227/1 162/227/1 160/227/1 133/227/1
f 12/281/1 33/282/1 103/283/1 102/284/1
f 131/259/17 158/118/17 157/121/17 130/260/17
f 130/1/1 157/1/1 155/1/1 125/1/1
f 166/285/5 168/286/5 169/287/5 167/288/5
f 138/289/2 137/290/2 166/291/2 167/292/2
f 137/293/3 149/294/3 168/295/3 166/296/3
f 149/297/4 150/298/4 169/299/4 168/300/4
f 170/301/5 171/302/5 173/303/5 172/304/5
f 137/305/4 138/306/4 173/307/4 171/308/4
f 165/309/2 164/310/2 170/311/2 172/312/2
f 138/313/21 165/314/21 172/315/21 173/316/21
f 174/317/21 175/318/21 177/319/21 176/320/21
f 176/321/2 177/322/2 181/323/2 180/324/2
f 180/325/3 181/326/3 179/327/3 178/328/3
f 178/329/4 179/330/4 175/331/4 174/332/4
f 176/333/5 180/334/5 178/335/5 174/336/5
f 181/337/1 177/338/1 175/339/1 179/340/1
f 182/341/21 183/342/21 185/343/21 184/344/21
f 184/345/2 185/346/2 189/347/2 188/348/2
f 188/349/3 189/350/3 187/351/3 186/352/3
f 186/353/4 187/354/4 183/355/4 182/356/4
f 184/357/5 188/358/5 186/359/5 182/360/5
f 189/361/1 185/362/1 183/363/1 187/364/1
